<svg width="1571" height="116" viewBox="0 0 1571 116" fill="none" xmlns="http://www.w3.org/2000/svg">
<path d="M55.85 115.85C45.95 115.85 37.45 114.1 30.35 110.6C23.25 107.1 17.45 102.55 12.95 96.95C8.55 91.35 5.3 85.25 3.2 78.65C1.1 72.05 0.0500003 65.7 0.0500003 59.6V56.3C0.0500003 49.5 1.1 42.8 3.2 36.2C5.4 29.6 8.75 23.6 13.25 18.2C17.75 12.8 23.45 8.49999 30.35 5.29999C37.35 1.99999 45.6 0.349993 55.1 0.349993C65 0.349993 73.6 2.14999 80.9 5.74999C88.3 9.25 94.2 14.25 98.6 20.75C103 27.15 105.65 34.65 106.55 43.25H85.1C84.3 38.25 82.5 34.05 79.7 30.65C77 27.15 73.55 24.55 69.35 22.85C65.15 21.05 60.4 20.15 55.1 20.15C49.7 20.15 44.9 21.1 40.7 23C36.5 24.8 33 27.4 30.2 30.8C27.4 34.2 25.25 38.2 23.75 42.8C22.35 47.4 21.65 52.5 21.65 58.1C21.65 63.5 22.35 68.5 23.75 73.1C25.25 77.7 27.45 81.75 30.35 85.25C33.25 88.65 36.8 91.3 41 93.2C45.3 95.1 50.25 96.05 55.85 96.05C64.05 96.05 70.95 94.05 76.55 90.05C82.25 85.95 85.7 80.25 86.9 72.95H108.35C107.35 80.75 104.7 87.9 100.4 94.4C96.1 100.9 90.2 106.1 82.7 110C75.2 113.9 66.25 115.85 55.85 115.85ZM124.674 113V31.55H141.174V66.05H140.724C140.724 54.35 143.224 45.5 148.224 39.5C153.224 33.5 160.574 30.5 170.274 30.5H173.274V48.65H167.574C160.574 48.65 155.124 50.55 151.224 54.35C147.424 58.05 145.524 63.45 145.524 70.55V113H124.674ZM236.134 113V88.85H232.684V62C232.684 57.3 231.534 53.8 229.234 51.5C226.934 49.2 223.384 48.05 218.584 48.05C216.084 48.05 213.084 48.1 209.584 48.2C206.084 48.3 202.534 48.45 198.934 48.65C195.434 48.75 192.284 48.9 189.484 49.1V31.4C191.784 31.2 194.384 31 197.284 30.8C200.184 30.6 203.134 30.5 206.134 30.5C209.234 30.4 212.134 30.35 214.834 30.35C223.234 30.35 230.184 31.45 235.684 33.65C241.284 35.85 245.484 39.3 248.284 44C251.184 48.7 252.634 54.85 252.634 62.45V113H236.134ZM209.884 115.1C203.984 115.1 198.784 114.05 194.284 111.95C189.884 109.85 186.434 106.85 183.934 102.95C181.534 99.05 180.334 94.35 180.334 88.85C180.334 82.85 181.784 77.95 184.684 74.15C187.684 70.35 191.834 67.5 197.134 65.6C202.534 63.7 208.834 62.75 216.034 62.75H234.934V75.2H215.734C210.934 75.2 207.234 76.4 204.634 78.8C202.134 81.1 200.884 84.1 200.884 87.8C200.884 91.5 202.134 94.5 204.634 96.8C207.234 99.1 210.934 100.25 215.734 100.25C218.634 100.25 221.284 99.75 223.684 98.75C226.184 97.65 228.234 95.85 229.834 93.35C231.534 90.75 232.484 87.25 232.684 82.85L237.784 88.7C237.284 94.4 235.884 99.2 233.584 103.1C231.384 107 228.284 110 224.284 112.1C220.384 114.1 215.584 115.1 209.884 115.1ZM276.917 113V29.6C276.917 20.3 279.467 13.45 284.567 9.05C289.767 4.55 297.417 2.29999 307.517 2.29999H317.717V18.35H306.017C302.917 18.35 300.517 19.2 298.817 20.9C297.217 22.5 296.417 24.8 296.417 27.8V113H276.917ZM266.717 48.2V32.9H319.067V48.2H266.717ZM368.961 114.05C361.461 114.05 355.261 113.1 350.361 111.2C345.561 109.2 341.961 105.9 339.561 101.3C337.161 96.6 335.961 90.3 335.961 82.4L336.111 8.59999H355.611L355.461 83.75C355.461 87.75 356.511 90.85 358.611 93.05C360.811 95.15 363.911 96.2 367.911 96.2H380.661V114.05H368.961ZM323.061 46.85V31.55H380.661V46.85H323.061ZM394.861 113V89H418.261V113H394.861ZM521.817 115.85C511.917 115.85 503.417 114.1 496.317 110.6C489.217 107.1 483.417 102.55 478.917 96.95C474.517 91.35 471.267 85.25 469.167 78.65C467.067 72.05 466.017 65.7 466.017 59.6V56.3C466.017 49.5 467.067 42.8 469.167 36.2C471.367 29.6 474.717 23.6 479.217 18.2C483.717 12.8 489.417 8.49999 496.317 5.29999C503.317 1.99999 511.567 0.349993 521.067 0.349993C530.967 0.349993 539.567 2.14999 546.867 5.74999C554.267 9.25 560.167 14.25 564.567 20.75C568.967 27.15 571.617 34.65 572.517 43.25H551.067C550.267 38.25 548.467 34.05 545.667 30.65C542.967 27.15 539.517 24.55 535.317 22.85C531.117 21.05 526.367 20.15 521.067 20.15C515.667 20.15 510.867 21.1 506.667 23C502.467 24.8 498.967 27.4 496.167 30.8C493.367 34.2 491.217 38.2 489.717 42.8C488.317 47.4 487.617 52.5 487.617 58.1C487.617 63.5 488.317 68.5 489.717 73.1C491.217 77.7 493.417 81.75 496.317 85.25C499.217 88.65 502.767 91.3 506.967 93.2C511.267 95.1 516.217 96.05 521.817 96.05C530.017 96.05 536.917 94.05 542.517 90.05C548.217 85.95 551.667 80.25 552.867 72.95H574.317C573.317 80.75 570.667 87.9 566.367 94.4C562.067 100.9 556.167 106.1 548.667 110C541.167 113.9 532.217 115.85 521.817 115.85ZM629.791 115.85C622.591 115.85 616.241 114.7 610.741 112.4C605.241 110.1 600.591 107 596.791 103.1C592.991 99.1 590.091 94.6 588.091 89.6C586.191 84.6 585.241 79.4 585.241 74V70.85C585.241 65.25 586.241 59.95 588.241 54.95C590.341 49.85 593.291 45.35 597.091 41.45C600.991 37.45 605.691 34.35 611.191 32.15C616.691 29.85 622.891 28.7 629.791 28.7C636.691 28.7 642.891 29.85 648.391 32.15C653.891 34.35 658.541 37.45 662.341 41.45C666.241 45.35 669.191 49.85 671.191 54.95C673.191 59.95 674.191 65.25 674.191 70.85V74C674.191 79.4 673.191 84.6 671.191 89.6C669.291 94.6 666.441 99.1 662.641 103.1C658.841 107 654.191 110.1 648.691 112.4C643.191 114.7 636.891 115.85 629.791 115.85ZM629.791 98C634.891 98 639.191 96.9 642.691 94.7C646.191 92.4 648.841 89.35 650.641 85.55C652.441 81.65 653.341 77.25 653.341 72.35C653.341 67.35 652.391 62.95 650.491 59.15C648.691 55.25 645.991 52.2 642.391 50C638.891 47.7 634.691 46.55 629.791 46.55C624.891 46.55 620.641 47.7 617.041 50C613.541 52.2 610.841 55.25 608.941 59.15C607.041 62.95 606.091 67.35 606.091 72.35C606.091 77.25 606.991 81.65 608.791 85.55C610.691 89.35 613.391 92.4 616.891 94.7C620.391 96.9 624.691 98 629.791 98ZM726.198 115.7C720.498 115.7 715.248 114.65 710.448 112.55C705.648 110.45 701.498 107.5 697.998 103.7C694.498 99.9 691.798 95.5 689.898 90.5C687.998 85.4 687.048 79.9 687.048 74V70.85C687.048 65.05 687.948 59.6 689.748 54.5C691.648 49.4 694.248 44.95 697.548 41.15C700.948 37.35 704.998 34.4 709.698 32.3C714.498 30.1 719.798 29 725.598 29C731.998 29 737.598 30.4 742.398 33.2C747.298 35.9 751.198 40 754.098 45.5C756.998 51 758.598 57.9 758.898 66.2L752.748 59V3.5H773.598V113H757.098V78.35H760.698C760.398 86.65 758.698 93.6 755.598 99.2C752.498 104.7 748.398 108.85 743.298 111.65C738.298 114.35 732.598 115.7 726.198 115.7ZM730.848 98.15C734.948 98.15 738.698 97.25 742.098 95.45C745.498 93.55 748.198 90.85 750.198 87.35C752.298 83.75 753.348 79.55 753.348 74.75V68.75C753.348 63.95 752.298 59.95 750.198 56.75C748.098 53.45 745.348 50.95 741.948 49.25C738.548 47.45 734.848 46.55 730.848 46.55C726.348 46.55 722.348 47.65 718.848 49.85C715.448 51.95 712.748 54.95 710.748 58.85C708.848 62.75 707.898 67.3 707.898 72.5C707.898 77.7 708.898 82.25 710.898 86.15C712.898 89.95 715.598 92.9 718.998 95C722.498 97.1 726.448 98.15 730.848 98.15ZM833.78 115.85C826.78 115.85 820.63 114.65 815.33 112.25C810.13 109.85 805.78 106.65 802.28 102.65C798.88 98.55 796.28 94 794.48 89C792.78 84 791.93 78.9 791.93 73.7V70.85C791.93 65.45 792.78 60.25 794.48 55.25C796.28 50.15 798.88 45.65 802.28 41.75C805.78 37.75 810.08 34.6 815.18 32.3C820.28 29.9 826.18 28.7 832.88 28.7C841.68 28.7 849.03 30.65 854.93 34.55C860.93 38.35 865.43 43.4 868.43 49.7C871.43 55.9 872.93 62.6 872.93 69.8V77.3H800.78V64.55H859.88L853.43 70.85C853.43 65.65 852.68 61.2 851.18 57.5C849.68 53.8 847.38 50.95 844.28 48.95C841.28 46.95 837.48 45.95 832.88 45.95C828.28 45.95 824.38 47 821.18 49.1C817.98 51.2 815.53 54.25 813.83 58.25C812.23 62.15 811.43 66.85 811.43 72.35C811.43 77.45 812.23 82 813.83 86C815.43 89.9 817.88 93 821.18 95.3C824.48 97.5 828.68 98.6 833.78 98.6C838.88 98.6 843.03 97.6 846.23 95.6C849.43 93.5 851.48 90.95 852.38 87.95H871.58C870.38 93.55 868.08 98.45 864.68 102.65C861.28 106.85 856.93 110.1 851.63 112.4C846.43 114.7 840.48 115.85 833.78 115.85ZM885.73 113V89H909.13V113H885.73ZM1012.69 115.85C1002.79 115.85 994.286 114.1 987.186 110.6C980.086 107.1 974.286 102.55 969.786 96.95C965.386 91.35 962.136 85.25 960.036 78.65C957.936 72.05 956.886 65.7 956.886 59.6V56.3C956.886 49.5 957.936 42.8 960.036 36.2C962.236 29.6 965.586 23.6 970.086 18.2C974.586 12.8 980.286 8.49999 987.186 5.29999C994.186 1.99999 1002.44 0.349993 1011.94 0.349993C1021.84 0.349993 1030.44 2.14999 1037.74 5.74999C1045.14 9.25 1051.04 14.25 1055.44 20.75C1059.84 27.15 1062.49 34.65 1063.39 43.25H1041.94C1041.14 38.25 1039.34 34.05 1036.54 30.65C1033.84 27.15 1030.39 24.55 1026.19 22.85C1021.99 21.05 1017.24 20.15 1011.94 20.15C1006.54 20.15 1001.74 21.1 997.536 23C993.336 24.8 989.836 27.4 987.036 30.8C984.236 34.2 982.086 38.2 980.586 42.8C979.186 47.4 978.486 52.5 978.486 58.1C978.486 63.5 979.186 68.5 980.586 73.1C982.086 77.7 984.286 81.75 987.186 85.25C990.086 88.65 993.636 91.3 997.836 93.2C1002.14 95.1 1007.09 96.05 1012.69 96.05C1020.89 96.05 1027.79 94.05 1033.39 90.05C1039.09 85.95 1042.54 80.25 1043.74 72.95H1065.19C1064.19 80.75 1061.54 87.9 1057.24 94.4C1052.94 100.9 1047.04 106.1 1039.54 110C1032.04 113.9 1023.09 115.85 1012.69 115.85ZM1120.66 115.85C1113.46 115.85 1107.11 114.7 1101.61 112.4C1096.11 110.1 1091.46 107 1087.66 103.1C1083.86 99.1 1080.96 94.6 1078.96 89.6C1077.06 84.6 1076.11 79.4 1076.11 74V70.85C1076.11 65.25 1077.11 59.95 1079.11 54.95C1081.21 49.85 1084.16 45.35 1087.96 41.45C1091.86 37.45 1096.56 34.35 1102.06 32.15C1107.56 29.85 1113.76 28.7 1120.66 28.7C1127.56 28.7 1133.76 29.85 1139.26 32.15C1144.76 34.35 1149.41 37.45 1153.21 41.45C1157.11 45.35 1160.06 49.85 1162.06 54.95C1164.06 59.95 1165.06 65.25 1165.06 70.85V74C1165.06 79.4 1164.06 84.6 1162.06 89.6C1160.16 94.6 1157.31 99.1 1153.51 103.1C1149.71 107 1145.06 110.1 1139.56 112.4C1134.06 114.7 1127.76 115.85 1120.66 115.85ZM1120.66 98C1125.76 98 1130.06 96.9 1133.56 94.7C1137.06 92.4 1139.71 89.35 1141.51 85.55C1143.31 81.65 1144.21 77.25 1144.21 72.35C1144.21 67.35 1143.26 62.95 1141.36 59.15C1139.56 55.25 1136.86 52.2 1133.26 50C1129.76 47.7 1125.56 46.55 1120.66 46.55C1115.76 46.55 1111.51 47.7 1107.91 50C1104.41 52.2 1101.71 55.25 1099.81 59.15C1097.91 62.95 1096.96 67.35 1096.96 72.35C1096.96 77.25 1097.86 81.65 1099.66 85.55C1101.56 89.35 1104.26 92.4 1107.76 94.7C1111.26 96.9 1115.56 98 1120.66 98ZM1183.32 113V31.55H1199.82V66.5H1198.32C1198.32 58.2 1199.42 51.3 1201.62 45.8C1203.82 40.2 1207.07 36 1211.37 33.2C1215.77 30.4 1221.22 29 1227.72 29H1228.62C1238.32 29 1245.67 32.15 1250.67 38.45C1255.67 44.65 1258.17 53.95 1258.17 66.35V113H1237.32V64.55C1237.32 59.55 1235.87 55.5 1232.97 52.4C1230.17 49.3 1226.27 47.75 1221.27 47.75C1216.17 47.75 1212.02 49.35 1208.82 52.55C1205.72 55.65 1204.17 59.85 1204.17 65.15V113H1183.32ZM1296.35 113L1270.85 31.55H1292.3L1316.75 113H1296.35ZM1302.5 113V95.9H1324.55V113H1302.5ZM1310.75 113L1331.75 31.55H1351.85L1329.8 113H1310.75ZM1402.29 115.85C1395.29 115.85 1389.14 114.65 1383.84 112.25C1378.64 109.85 1374.29 106.65 1370.79 102.65C1367.39 98.55 1364.79 94 1362.99 89C1361.29 84 1360.44 78.9 1360.44 73.7V70.85C1360.44 65.45 1361.29 60.25 1362.99 55.25C1364.79 50.15 1367.39 45.65 1370.79 41.75C1374.29 37.75 1378.59 34.6 1383.69 32.3C1388.79 29.9 1394.69 28.7 1401.39 28.7C1410.19 28.7 1417.54 30.65 1423.44 34.55C1429.44 38.35 1433.94 43.4 1436.94 49.7C1439.94 55.9 1441.44 62.6 1441.44 69.8V77.3H1369.29V64.55H1428.39L1421.94 70.85C1421.94 65.65 1421.19 61.2 1419.69 57.5C1418.19 53.8 1415.89 50.95 1412.79 48.95C1409.79 46.95 1405.99 45.95 1401.39 45.95C1396.79 45.95 1392.89 47 1389.69 49.1C1386.49 51.2 1384.04 54.25 1382.34 58.25C1380.74 62.15 1379.94 66.85 1379.94 72.35C1379.94 77.45 1380.74 82 1382.34 86C1383.94 89.9 1386.39 93 1389.69 95.3C1392.99 97.5 1397.19 98.6 1402.29 98.6C1407.39 98.6 1411.54 97.6 1414.74 95.6C1417.94 93.5 1419.99 90.95 1420.89 87.95H1440.09C1438.89 93.55 1436.59 98.45 1433.19 102.65C1429.79 106.85 1425.44 110.1 1420.14 112.4C1414.94 114.7 1408.99 115.85 1402.29 115.85ZM1458.85 113V31.55H1475.35V66.05H1474.9C1474.9 54.35 1477.4 45.5 1482.4 39.5C1487.4 33.5 1494.75 30.5 1504.45 30.5H1507.45V48.65H1501.75C1494.75 48.65 1489.3 50.55 1485.4 54.35C1481.6 58.05 1479.7 63.45 1479.7 70.55V113H1458.85ZM1558.56 114.05C1551.06 114.05 1544.86 113.1 1539.96 111.2C1535.16 109.2 1531.56 105.9 1529.16 101.3C1526.76 96.6 1525.56 90.3 1525.56 82.4L1525.71 8.59999H1545.21L1545.06 83.75C1545.06 87.75 1546.11 90.85 1548.21 93.05C1550.41 95.15 1553.51 96.2 1557.51 96.2H1570.26V114.05H1558.56ZM1512.66 46.85V31.55H1570.26V46.85H1512.66Z" fill="#E7E7E7"/>
</svg>
