<svg width="130" height="130" viewBox="0 0 130 130" fill="none" xmlns="http://www.w3.org/2000/svg">
<g clip-path="url(#clip0_1706_92)">
<path d="M66.0674 7.58184L66.5883 0L67.3739 0.051171L66.853 7.63301L66.0674 7.58184ZM66.6395 7.62448L66.6907 6.90809L68.7401 7.04455C69.2439 7.07866 69.6965 7.02749 70.0893 6.89103C70.4821 6.75458 70.8151 6.54989 71.0969 6.28551C71.3787 6.02112 71.5922 5.70557 71.7545 5.34737C71.9082 4.98918 72.0021 4.59686 72.0277 4.17897C72.0533 3.74401 72.0192 3.34317 71.9082 2.95939C71.7971 2.57561 71.6264 2.243 71.3787 1.9445C71.1396 1.646 70.8322 1.4072 70.4565 1.2281C70.0808 1.04901 69.6453 0.946664 69.15 0.91255L67.1006 0.776094L67.1519 0.0596995L69.1159 0.196156C69.7905 0.238798 70.3626 0.383783 70.8493 0.622581C71.3275 0.861379 71.7203 1.16841 72.0277 1.54366C72.3351 1.91891 72.5486 2.32828 72.6767 2.78029C72.8048 3.2323 72.856 3.68431 72.8218 4.13632L72.8048 4.33248C72.7706 4.77596 72.6681 5.21944 72.4803 5.64587C72.2924 6.0723 72.0277 6.45608 71.6776 6.79722C71.3275 7.13836 70.9005 7.39421 70.3882 7.57331C69.8758 7.75241 69.2781 7.82064 68.6035 7.778L66.6395 7.64154V7.62448Z" fill="black"/>
<path d="M74.0176 8.25551L75.5034 0.844238L76.2719 0.997751L74.7861 8.40902L74.0176 8.25551ZM75.0337 5.55197L75.1704 4.86116L77.1514 5.262C77.5186 5.33876 77.8346 5.3217 78.1078 5.22789C78.3811 5.13408 78.6031 4.98056 78.7739 4.75882C78.9447 4.53708 79.0642 4.2727 79.124 3.96567C79.1838 3.65865 79.1838 3.36868 79.1069 3.09576C79.0301 2.83138 78.8934 2.60111 78.68 2.40495C78.4665 2.2088 78.1761 2.08087 77.809 2.00411L75.8279 1.60328L75.9645 0.929523L77.8175 1.29625C78.364 1.40712 78.808 1.58622 79.1581 1.83354C79.5082 2.08087 79.7473 2.39643 79.8754 2.76315C80.0035 3.13841 80.0291 3.56483 79.9267 4.04243L79.9011 4.18741C79.8071 4.66501 79.6193 5.04879 79.3545 5.34729C79.0813 5.63726 78.7483 5.83341 78.3299 5.93576C77.92 6.02957 77.4418 6.02957 76.8867 5.9187L75.0337 5.55197ZM78.6031 9.17659L76.733 5.40699L77.6382 5.58609L79.5424 9.36422L78.6031 9.17659Z" fill="black"/>
<path d="M80.8232 9.80787L82.9409 2.58423L83.6924 2.80597L81.5747 10.0296L80.8232 9.80787Z" fill="black"/>
<path d="M85.3486 11.3003L85.5877 3.30908L86.3392 3.59905L86.0915 11.07L85.7841 10.7033L86.8003 11.1041L86.2965 11.1468L91.0357 5.43268L91.7786 5.72265L86.6722 11.812L85.3572 11.3003H85.3486Z" fill="black"/>
<path d="M90.1816 13.3641L93.7168 6.71191L94.4085 7.07864L90.8733 13.7309L90.1816 13.3641ZM90.7111 13.6371L91.0441 13.006L94.3744 14.7714L94.0413 15.4025L90.7111 13.6371ZM92.342 10.5668L92.6751 9.94422L95.6979 11.5476L95.3649 12.1702L92.342 10.5668ZM93.9133 7.61594L94.2463 6.98483L97.4741 8.69906L97.141 9.33017L93.9133 7.61594Z" fill="black"/>
<path d="M95.4678 16.2298L99.8057 10.0723L100.882 10.8228L100.327 18.7713L100.6 18.959L100.335 18.976L104.357 13.2705L104.972 13.7054L100.634 19.863L99.5495 19.104L100.105 11.1554L99.8313 10.9678L100.096 10.9507L96.0741 16.6563L95.4678 16.2298Z" fill="black"/>
<path d="M103.99 22.8136L109.361 17.4492L109.916 18.0036L104.545 23.368L103.99 22.8136ZM104.4 23.2315L104.887 22.7454L106.45 24.3061C106.765 24.6217 107.107 24.7752 107.466 24.7752C107.824 24.7752 108.157 24.6132 108.456 24.3147C108.755 24.0162 108.909 23.6921 108.909 23.3339C108.909 22.9757 108.755 22.6346 108.439 22.319L106.876 20.7583L107.244 20.3916L108.729 21.8755C109.054 22.1996 109.293 22.5237 109.447 22.8648C109.609 23.206 109.66 23.5386 109.6 23.8712C109.541 24.2038 109.361 24.5364 109.045 24.852L108.96 24.9372C108.67 25.2272 108.362 25.4148 108.021 25.5087C107.679 25.6025 107.329 25.5854 106.97 25.4575C106.612 25.3296 106.245 25.0822 105.877 24.7155L104.392 23.2315H104.4ZM106.987 20.6474L107.355 20.2807L108.721 21.6452C109.054 21.9779 109.396 22.1399 109.737 22.1143C110.079 22.0887 110.386 21.9437 110.668 21.6623C110.958 21.3723 111.112 21.0653 111.129 20.7242C111.146 20.383 110.992 20.0419 110.651 19.7093L109.285 18.3447L109.771 17.8586L111.044 19.1293C111.59 19.6752 111.88 20.2125 111.906 20.7327C111.932 21.2529 111.727 21.7305 111.283 22.1655L111.197 22.2508C110.89 22.5578 110.574 22.7369 110.241 22.7966C109.908 22.8563 109.583 22.7966 109.25 22.6431C108.917 22.4896 108.584 22.2422 108.251 21.9096L106.979 20.6389L106.987 20.6474Z" fill="black"/>
<path d="M109.677 28.8945L112.119 26.9414L112.606 27.547L110.163 29.5L109.677 28.8945ZM111.752 26.7623L113.818 22.012L114.331 22.6601L112.469 26.8817L112.367 26.5406L113.084 27.4361L112.768 27.257L117.234 26.2762L117.721 26.8817L112.717 27.9649L111.76 26.7709L111.752 26.7623Z" fill="black"/>
<path d="M113.392 33.8325L121.324 32.5618L122.016 33.7813L116.85 39.973L116.457 39.2737L121.282 33.4999L121.299 33.9775L120.769 33.0308L121.179 33.3123L113.784 34.5233L113.4 33.841L113.392 33.8325ZM116.21 33.9519L116.961 33.824L118.677 36.8687L118.191 37.4486L116.218 33.9434L116.21 33.9519Z" fill="black"/>
<path d="M117.337 41.2609L124.219 38.1907L124.544 38.9071L117.661 41.9773L117.337 41.2609Z" fill="black"/>
<path d="M118.412 43.7854L119.368 43.4187L119.719 44.3227L118.762 44.6894L118.412 43.7854Z" fill="black"/>
<path d="M120.12 48.6722L127.489 46.813L127.686 47.572L120.317 49.4312L120.129 48.6722H120.12ZM120.265 49.2436L120.94 49.073L121.478 51.2137C121.589 51.6487 121.802 51.9557 122.11 52.1348C122.426 52.3139 122.784 52.3565 123.194 52.2456C123.604 52.1433 123.903 51.9386 124.091 51.6401C124.279 51.3331 124.321 50.9664 124.21 50.5229L123.672 48.3822L124.176 48.2543L124.689 50.2841C124.8 50.7276 124.834 51.1284 124.8 51.5037C124.765 51.8789 124.637 52.1945 124.415 52.4503C124.202 52.7147 123.869 52.8938 123.442 53.0047L123.322 53.0388C122.929 53.1411 122.562 53.1411 122.221 53.0473C121.879 52.9535 121.589 52.7659 121.341 52.4674C121.094 52.1774 120.914 51.7766 120.786 51.2649L120.274 49.2351L120.265 49.2436ZM123.809 48.3481L124.313 48.2202L124.782 50.0879C124.902 50.5485 125.107 50.8555 125.414 51.009C125.722 51.1625 126.063 51.1966 126.448 51.1028C126.84 51.0005 127.131 50.8129 127.327 50.5314C127.515 50.25 127.558 49.8747 127.438 49.4142L126.969 47.5464L127.643 47.3759L128.087 49.1157C128.275 49.8662 128.249 50.4717 128.002 50.9323C127.754 51.3928 127.336 51.6998 126.729 51.8448L126.61 51.8789C126.191 51.9813 125.824 51.9813 125.508 51.8619C125.201 51.7425 124.936 51.5293 124.731 51.2222C124.526 50.9152 124.364 50.5399 124.253 50.0794L123.809 48.3396V48.3481Z" fill="black"/>
<path d="M121.88 58.1388C121.794 57.4566 121.863 56.8766 122.068 56.3905C122.273 55.9129 122.597 55.5291 123.041 55.2477C123.485 54.9662 124.006 54.7872 124.612 54.7189L129.172 54.1731L129.266 54.9492L124.612 55.5035C124.151 55.5547 123.767 55.6912 123.442 55.8959C123.118 56.1005 122.887 56.3905 122.734 56.7487C122.58 57.1069 122.537 57.5419 122.597 58.045C122.657 58.5397 122.802 58.9491 123.024 59.2646C123.255 59.5802 123.545 59.7934 123.912 59.9298C124.279 60.0578 124.689 60.1004 125.15 60.0407L129.804 59.4864L129.898 60.2625L125.338 60.8083C124.732 60.8765 124.177 60.8339 123.681 60.6633C123.186 60.4927 122.785 60.2027 122.469 59.7849C122.153 59.367 121.957 58.8211 121.88 58.1388Z" fill="black"/>
<path d="M122.435 63.2389L129.975 63.0598L129.992 63.8444L122.452 64.0235L122.435 63.2389Z" fill="black"/>
<path d="M122.443 66.8295L123.152 66.8636L122.981 70.3944L122.272 70.3603L122.443 66.8295ZM122.469 66.2581L130 66.6248L129.966 67.4094L122.435 67.0427L122.469 66.2581Z" fill="black"/>
<path d="M121.981 72.4497L128.941 73.3963L128.838 74.1724L121.879 73.2258L121.981 72.4497ZM129.06 71.0425L129.769 71.1363L129.026 76.5689L128.317 76.4751L129.06 71.0339V71.0425Z" fill="black"/>
<path d="M120.744 79.1018L127.993 81.1657L127.78 81.9162L120.53 79.8523L120.744 79.1018ZM123.929 80.6113L124.612 80.8075L123.707 84.0142L123.024 83.8181L123.929 80.6113ZM127.157 81.5239L127.831 81.7201L126.866 85.1144L126.192 84.9268L127.157 81.5324V81.5239Z" fill="black"/>
<path d="M117.738 87.366C117.994 86.769 118.327 86.2914 118.729 85.9418C119.13 85.5921 119.574 85.3448 120.052 85.1998C120.53 85.0548 121.008 85.0036 121.487 85.0378C121.965 85.0719 122.409 85.1742 122.802 85.3363L122.972 85.4045C123.399 85.5836 123.792 85.8394 124.151 86.1635C124.51 86.4876 124.791 86.8799 125.013 87.3149C125.227 87.7583 125.346 88.2445 125.363 88.7732C125.381 89.302 125.27 89.8564 125.022 90.4448C124.774 91.0333 124.45 91.5024 124.057 91.8606C123.664 92.2102 123.237 92.4661 122.768 92.6196C122.298 92.7731 121.82 92.8328 121.342 92.7987C120.855 92.7646 120.402 92.6622 119.975 92.4831L119.796 92.4064C119.395 92.2358 119.019 91.9885 118.669 91.6729C118.31 91.3574 118.02 90.9736 117.789 90.5301C117.559 90.0866 117.431 89.592 117.405 89.0632C117.379 88.5259 117.49 87.963 117.747 87.3575L117.738 87.366ZM118.404 87.656C118.216 88.0995 118.131 88.5259 118.139 88.9438C118.156 89.3617 118.25 89.7455 118.43 90.1122C118.609 90.4704 118.848 90.7945 119.147 91.0674C119.446 91.3403 119.787 91.5621 120.18 91.7326C120.582 91.9032 120.991 92.0055 121.401 92.0226C121.811 92.0397 122.204 91.997 122.58 91.8691C122.955 91.7412 123.306 91.5365 123.613 91.255C123.92 90.9736 124.168 90.6154 124.356 90.1804C124.535 89.754 124.629 89.3276 124.612 88.9097C124.603 88.4918 124.51 88.108 124.339 87.7498C124.168 87.3916 123.929 87.0675 123.63 86.7861C123.331 86.5047 122.981 86.2829 122.571 86.1038C122.187 85.9418 121.786 85.848 121.376 85.8224C120.966 85.7968 120.573 85.848 120.189 85.9674C119.804 86.0868 119.454 86.2914 119.147 86.5729C118.84 86.8543 118.583 87.2125 118.404 87.656Z" fill="black"/>
<path d="M113.195 96.338L117.379 95.8433L116.909 96.628L112.708 97.1567L113.203 96.3295L113.195 96.338ZM115.594 92.3296L122.093 96.2015L121.691 96.8753L115.193 93.0033L115.594 92.3296ZM117.814 94.1973L118.421 94.5555L117.387 96.2953C117.2 96.6109 117.097 96.9179 117.097 97.2079C117.097 97.4979 117.165 97.7537 117.319 97.984C117.473 98.2143 117.678 98.4104 117.951 98.5725C118.224 98.7345 118.498 98.8283 118.771 98.8454C119.044 98.8624 119.309 98.8112 119.565 98.6748C119.821 98.5383 120.043 98.3081 120.231 97.9925L121.264 96.2527L121.862 96.6109L120.897 98.2313C120.615 98.7089 120.291 99.0671 119.941 99.3144C119.591 99.5618 119.215 99.6812 118.822 99.6812C118.429 99.6812 118.019 99.5532 117.601 99.3059L117.473 99.2291C117.054 98.9818 116.747 98.6748 116.559 98.3251C116.371 97.9755 116.303 97.5831 116.346 97.1653C116.388 96.7474 116.559 96.2953 116.841 95.8177L117.806 94.1973H117.814Z" fill="black"/>
<path d="M108.354 102.393C108.789 101.882 109.259 101.523 109.746 101.31C110.241 101.097 110.728 101.012 111.214 101.029C111.701 101.054 112.162 101.157 112.598 101.344C113.033 101.532 113.409 101.762 113.733 102.044L113.878 102.172C114.229 102.47 114.536 102.82 114.792 103.229C115.048 103.63 115.219 104.073 115.304 104.542C115.39 105.012 115.373 105.498 115.236 105.992C115.1 106.496 114.826 106.99 114.408 107.476C113.989 107.971 113.537 108.321 113.059 108.525C112.58 108.738 112.094 108.815 111.598 108.764C111.103 108.713 110.625 108.525 110.164 108.21L110.685 107.604C111.061 107.852 111.436 107.988 111.821 108.005C112.196 108.022 112.563 107.945 112.914 107.766C113.264 107.587 113.58 107.331 113.87 106.999C114.177 106.64 114.382 106.265 114.493 105.881C114.596 105.498 114.621 105.114 114.545 104.739C114.468 104.363 114.331 103.997 114.118 103.656C113.904 103.314 113.631 102.99 113.289 102.709C112.973 102.436 112.623 102.223 112.256 102.061C111.88 101.899 111.505 101.813 111.112 101.805C110.719 101.796 110.335 101.873 109.959 102.044C109.583 102.214 109.233 102.487 108.917 102.862C108.473 103.383 108.226 103.937 108.183 104.517C108.14 105.097 108.337 105.643 108.764 106.154L108.243 106.76C107.901 106.368 107.662 105.924 107.525 105.446C107.389 104.96 107.389 104.457 107.525 103.937C107.653 103.417 107.935 102.905 108.371 102.402L108.354 102.393Z" fill="black"/>
<path d="M101.41 109.446L106.406 115.084L105.817 115.604L100.821 109.967L101.41 109.446ZM107.08 108.952L107.542 109.48L103.981 112.627L103.52 112.099L107.08 108.952ZM105.296 106.018L110.291 111.655L109.702 112.175L104.707 106.538L105.296 106.018Z" fill="black"/>
<path d="M99.8225 110.785L101.701 118.589L100.531 119.365L93.9561 114.7L94.6221 114.256L100.762 118.623L100.292 118.674L101.197 118.069L100.95 118.495L99.1735 111.22L99.8225 110.785ZM99.9249 113.6L100.104 114.333L97.1924 116.278L96.569 115.834L99.9164 113.6H99.9249Z" fill="black"/>
<path d="M92.8375 115.314L96.1165 122.094L94.9381 122.666L88.2434 118.325L87.9445 118.47L88.0555 118.231L91.104 124.516L90.4294 124.84L87.1504 118.06L88.3373 117.489L95.0235 121.83L95.3224 121.685L95.2113 121.924L92.1714 115.638L92.8375 115.314Z" fill="black"/>
<path d="M83.1539 122.486L83.3503 123.117L79.5333 124.311L79.3369 123.68L83.1539 122.486ZM81.967 119.655C82.5562 119.467 83.1112 119.408 83.6321 119.459C84.153 119.51 84.6141 119.663 85.0325 119.911C85.4509 120.158 85.8096 120.482 86.1085 120.883C86.4073 121.284 86.6379 121.727 86.7916 122.23L86.8514 122.41C86.9965 122.87 87.0563 123.339 87.0392 123.817C87.0221 124.294 86.9197 124.755 86.7318 125.198C86.544 125.642 86.2622 126.026 85.8864 126.367C85.5107 126.708 85.0411 126.964 84.486 127.143C83.9054 127.322 83.3503 127.382 82.8294 127.296C82.3085 127.22 81.8474 127.023 81.4461 126.716C81.0447 126.409 80.7373 126.009 80.5324 125.505L81.2924 125.267C81.4802 125.667 81.7279 125.983 82.0438 126.196C82.3598 126.409 82.7099 126.537 83.1027 126.58C83.4869 126.614 83.8883 126.58 84.2811 126.444C84.6995 126.316 85.0581 126.119 85.357 125.864C85.6473 125.608 85.8694 125.301 86.0231 124.951C86.1768 124.601 86.2536 124.218 86.2622 123.808C86.2707 123.399 86.2109 122.972 86.0743 122.529C85.9291 122.06 85.7327 121.659 85.4766 121.318C85.2204 120.977 84.9301 120.704 84.597 120.508C84.264 120.312 83.8883 120.192 83.4869 120.149C83.0856 120.107 82.6501 120.167 82.189 120.303C81.6254 120.482 81.1643 120.746 80.7971 121.096C80.4385 121.454 80.1908 121.847 80.0713 122.282V121.267L80.7459 123.39L80.0371 123.612L79.4735 121.821C79.6529 121.326 79.9603 120.883 80.3787 120.508C80.7971 120.124 81.3351 119.834 81.9755 119.638L81.967 119.655Z" fill="black"/>
<path d="M76.5361 121.241L76.6642 121.941L72.9582 122.606L72.8301 121.906L76.5361 121.241ZM77.1509 124.661L77.2704 125.352L73.906 125.958L73.7779 125.267L77.1423 124.661H77.1509ZM77.7401 127.953L77.8682 128.653L74.2732 129.301L74.1451 128.601L77.7401 127.953ZM77.1253 121.139L78.4574 128.55L77.6889 128.687L76.3567 121.275L77.1253 121.139Z" fill="black"/>
<path d="M63.6165 122.376L63.5738 123.092L61.5244 122.964C61.012 122.93 60.568 122.99 60.1752 123.126C59.7824 123.262 59.4494 123.467 59.1676 123.74C58.8858 124.004 58.6723 124.32 58.5186 124.687C58.3649 125.053 58.271 125.437 58.2454 125.855C58.2197 126.29 58.2624 126.691 58.3734 127.075C58.4845 127.45 58.6638 127.791 58.9029 128.09C59.142 128.388 59.4494 128.627 59.8251 128.797C60.2008 128.977 60.6363 129.079 61.1316 129.113L63.181 129.241L63.1383 129.957L61.1657 129.829C60.4911 129.787 59.919 129.65 59.4323 129.412C58.9541 129.173 58.5528 128.866 58.2454 128.49C57.9379 128.115 57.7159 127.706 57.5878 127.254C57.4598 126.802 57.4085 126.35 57.4341 125.898V125.702C57.4768 125.258 57.5793 124.815 57.7672 124.388C57.955 123.962 58.2197 123.578 58.5698 123.237C58.9199 122.896 59.3469 122.631 59.8593 122.452C60.3716 122.265 60.9693 122.196 61.6439 122.239L63.6165 122.367V122.376ZM64.1886 122.41L63.7019 129.991L62.9163 129.94L63.403 122.358L64.1886 122.41Z" fill="black"/>
<path d="M55.2061 124.482L55.0694 125.173L53.0798 124.781C52.7126 124.712 52.3967 124.721 52.1234 124.815C51.8502 124.909 51.6282 125.062 51.4659 125.284C51.3037 125.506 51.1841 125.77 51.1244 126.077C51.0646 126.384 51.0731 126.674 51.1414 126.938C51.2183 127.203 51.3635 127.433 51.5769 127.629C51.7904 127.825 52.0807 127.953 52.4479 128.022L54.4375 128.414L54.3009 129.096L52.4479 128.729C51.9014 128.627 51.4488 128.448 51.1073 128.201C50.7572 127.953 50.5181 127.646 50.3814 127.271C50.2448 126.896 50.2277 126.469 50.3217 125.992L50.3473 125.847C50.4412 125.369 50.6205 124.977 50.8938 124.687C51.167 124.397 51.5001 124.192 51.9185 124.098C52.3284 123.996 52.8066 124.005 53.3616 124.115L55.2146 124.482H55.2061ZM51.6196 120.866L53.4982 124.627L52.5931 124.448L50.6718 120.678L51.6111 120.866H51.6196ZM56.2051 121.762L54.745 129.181L53.9764 129.028L55.4366 121.608L56.2051 121.762Z" fill="black"/>
<path d="M49.4158 120.252L47.3237 127.484L46.5723 127.271L48.6644 120.039L49.4158 120.252Z" fill="black"/>
<path d="M44.8819 118.768L44.677 126.759L43.9255 126.469L44.139 118.998L44.4549 119.365L43.4302 118.973L43.9341 118.922L39.2204 124.653L38.4775 124.363L43.5583 118.256L44.8734 118.768H44.8819Z" fill="black"/>
<path d="M36.334 122.495L36.001 123.126L32.7646 121.429L33.0977 120.798L36.334 122.495ZM37.8881 119.536L37.5637 120.158L34.5408 118.572L34.8653 117.949L37.8881 119.536ZM40.04 116.738L36.539 123.408L35.8473 123.041L39.3483 116.372L40.04 116.738ZM39.5106 116.457L39.1776 117.088L35.8387 115.34L36.1718 114.708L39.5106 116.457Z" fill="black"/>
<path d="M34.7377 113.89L30.4255 120.064L29.3495 119.314L29.8704 111.365L29.5972 111.177L29.8619 111.16L25.857 116.883L25.2422 116.457L29.5545 110.282L30.6389 111.041L30.118 118.99L30.3913 119.177L30.1266 119.194L34.1314 113.472L34.7377 113.898V113.89Z" fill="black"/>
<path d="M23.2007 109.515L22.8335 109.881L21.4587 108.525C21.1172 108.193 20.7841 108.039 20.434 108.056C20.0839 108.073 19.785 108.227 19.5033 108.508C19.2215 108.798 19.0678 109.114 19.0507 109.455C19.0336 109.796 19.1958 110.129 19.5289 110.47L20.9037 111.826L20.4169 112.32L19.1446 111.058C18.5896 110.512 18.2992 109.975 18.2736 109.455C18.248 108.935 18.4529 108.457 18.8884 108.014L18.9738 107.928C19.2812 107.621 19.5972 107.442 19.9217 107.382C20.2462 107.323 20.5792 107.382 20.9122 107.527C21.2452 107.672 21.5783 107.928 21.9113 108.252L23.1836 109.515H23.2007ZM26.1894 107.331L20.8354 112.721L20.2803 112.167L25.6344 106.777L26.1894 107.331ZM25.7795 106.922L25.2928 107.417L23.7216 105.864C23.4056 105.549 23.0641 105.395 22.7054 105.404C22.3468 105.404 22.0138 105.566 21.7149 105.864C21.416 106.163 21.2709 106.487 21.2623 106.845C21.2538 107.203 21.416 107.544 21.7405 107.86L23.3117 109.412L22.9445 109.779L21.4587 108.304C21.1342 107.979 20.8951 107.655 20.7329 107.314C20.5707 106.973 20.5194 106.64 20.5707 106.308C20.6219 105.975 20.8097 105.643 21.1257 105.327L21.2111 105.242C21.5014 104.952 21.8088 104.764 22.1504 104.67C22.492 104.577 22.8421 104.585 23.2007 104.713C23.5594 104.841 23.9265 105.088 24.3023 105.455L25.7881 106.93L25.7795 106.922Z" fill="black"/>
<path d="M18.4105 103.417L16.3697 108.175L15.8488 107.536L17.6932 103.306L17.7957 103.647L17.0784 102.76L17.3944 102.939L12.9369 103.937L12.4502 103.331L17.4541 102.231L18.4105 103.417ZM20.477 101.276L18.0433 103.237L17.5566 102.632L19.9903 100.67L20.477 101.276Z" fill="black"/>
<path d="M16.7449 96.3552L8.82058 97.66L8.12891 96.4404L13.2695 90.2317L13.6708 90.931L8.87181 96.7304L8.85473 96.2528L9.3927 97.1909L8.98282 96.9095L16.3777 95.6643L16.762 96.3466L16.7449 96.3552ZM13.927 96.2528L13.1755 96.3807L11.4506 93.3361L11.9374 92.7476L13.927 96.2443V96.2528Z" fill="black"/>
<path d="M12.7747 88.9522L5.90066 92.0481L5.57617 91.3317L12.4502 88.2358L12.7747 88.9522Z" fill="black"/>
<path d="M11.6815 86.4279L10.7336 86.8032L10.375 85.8992L11.3228 85.5239L11.6815 86.4279Z" fill="black"/>
<path d="M6.26804 81.8908L5.76423 82.0187L5.28604 80.151C5.16649 79.6904 4.95301 79.3834 4.6456 79.2299C4.3382 79.0764 3.99663 79.0423 3.61237 79.1446C3.21957 79.2469 2.92924 79.4346 2.74137 79.7245C2.55351 80.006 2.51936 80.3812 2.63037 80.8418L3.10856 82.7095L2.4425 82.8801L1.99847 81.1403C1.80207 80.3898 1.82769 79.7842 2.07532 79.3237C2.32296 78.8632 2.74137 78.5561 3.33911 78.4026L3.45866 78.3685C3.87708 78.2576 4.24426 78.2662 4.55167 78.3856C4.85908 78.505 5.1238 78.7182 5.32874 79.0252C5.53368 79.3322 5.69592 79.7075 5.81547 80.1595L6.2595 81.8993L6.26804 81.8908ZM9.95696 81.5496L2.59621 83.443L2.39981 82.6839L9.76056 80.7906L9.95696 81.5496ZM9.81179 80.9782L9.14574 81.1488L8.59069 79.0081C8.47968 78.5732 8.2662 78.2662 7.95026 78.0871C7.63431 77.908 7.27566 77.8738 6.85724 77.9762C6.44736 78.0785 6.15703 78.2832 5.96917 78.5902C5.78131 78.8973 5.74715 79.264 5.85816 79.7075L6.41321 81.8481L5.9094 81.9761L5.38851 79.9463C5.2775 79.5028 5.23481 79.1019 5.26896 78.7267C5.30312 78.3514 5.43121 78.0359 5.64469 77.78C5.85816 77.5156 6.18265 77.328 6.61815 77.2172L6.7377 77.183C7.1305 77.0807 7.49768 77.0807 7.83925 77.166C8.18081 77.2598 8.47114 77.4474 8.71878 77.7374C8.96641 78.0274 9.15428 78.4282 9.28236 78.9314L9.80325 80.9612L9.81179 80.9782Z" fill="black"/>
<path d="M8.15473 72.1C8.24012 72.7823 8.18035 73.3622 7.97541 73.8483C7.77047 74.3345 7.44598 74.7097 7.01048 74.9997C6.56645 75.2811 6.04556 75.4602 5.43928 75.537L0.879375 76.0999L0.785444 75.3238L5.43928 74.7438C5.90039 74.6841 6.28466 74.5562 6.60914 74.343C6.93363 74.1298 7.16419 73.8483 7.31789 73.4901C7.4716 73.1319 7.51429 72.697 7.44598 72.1938C7.38621 71.6992 7.24104 71.2898 7.01048 70.9828C6.77993 70.6757 6.48106 70.454 6.11387 70.3261C5.74669 70.1981 5.33681 70.164 4.8757 70.2237L0.22186 70.7951L0.12793 70.019L4.68783 69.4562C5.29411 69.3794 5.84916 69.4306 6.34443 69.5926C6.8397 69.7632 7.24958 70.0532 7.55699 70.4625C7.87294 70.8804 8.06934 71.4262 8.15473 72.1085V72.1Z" fill="black"/>
<path d="M7.57375 67.0085L0.042219 67.2132L0.0166016 66.4286L7.54813 66.2239L7.57375 67.0085Z" fill="black"/>
<path d="M7.53153 63.9637L0 63.6226L0.0341566 62.8379L7.56568 63.1791L7.53153 63.9637ZM7.55715 63.3838L6.8484 63.3496L7.01064 59.8188L7.71939 59.853L7.55715 63.3838Z" fill="black"/>
<path d="M0.913827 59.1964L0.205078 59.1026L0.930906 53.6614L1.63966 53.7552L0.913827 59.1964ZM7.99278 57.7636L1.03338 56.8425L1.13585 56.0664L8.09525 56.9875L7.99278 57.7636Z" fill="black"/>
<path d="M9.21335 51.1027L1.95508 49.0644L2.16856 48.3139L9.42683 50.3522L9.21335 51.1113V51.1027ZM2.78338 48.6977L2.10878 48.5101L3.06517 45.1157L3.73976 45.3033L2.78338 48.6977ZM6.01971 49.6102L5.33658 49.4141L6.22465 46.2074L6.90778 46.4035L6.01971 49.6102Z" fill="black"/>
<path d="M12.1679 42.8388C11.9118 43.4443 11.5873 43.9219 11.1859 44.2716C10.7846 44.6213 10.3406 44.8686 9.86236 45.0136C9.38417 45.1585 8.90598 45.2097 8.42778 45.1841C7.94959 45.15 7.50556 45.0562 7.10422 44.8856L6.93343 44.8174C6.50648 44.6383 6.11367 44.391 5.75503 44.0584C5.39639 43.7258 5.10605 43.3505 4.89258 42.907C4.6791 42.4635 4.55955 41.9774 4.53393 41.4486C4.51685 40.9199 4.62786 40.3655 4.8755 39.7771C5.12313 39.1886 5.44762 38.7195 5.83188 38.3613C6.22468 38.0031 6.65164 37.7558 7.12129 37.6023C7.59095 37.4488 8.06914 37.3891 8.54733 37.4147C9.03406 37.4402 9.48664 37.5426 9.9136 37.7217L10.0929 37.7984C10.4943 37.969 10.87 38.2078 11.2286 38.5234C11.5873 38.8389 11.8776 39.2227 12.1082 39.6662C12.3387 40.1097 12.4668 40.5958 12.501 41.1331C12.5266 41.6704 12.4156 42.2333 12.1679 42.8388ZM11.5019 42.5574C11.6897 42.1139 11.7751 41.6874 11.7581 41.2695C11.741 40.8517 11.647 40.4679 11.4677 40.1097C11.2884 39.7515 11.0408 39.4359 10.7419 39.1545C10.443 38.8816 10.0929 38.6598 9.70866 38.4978C9.29878 38.3272 8.89744 38.2334 8.48756 38.2078C8.07768 38.1822 7.68488 38.2419 7.30916 38.3699C6.93343 38.4978 6.59187 38.7025 6.28446 38.9839C5.97705 39.2653 5.73795 39.6235 5.55009 40.067C5.37077 40.502 5.28538 40.9199 5.29392 41.3378C5.30246 41.7557 5.39639 42.1395 5.57571 42.4977C5.74649 42.8559 5.98559 43.1799 6.28446 43.4528C6.58333 43.7343 6.94197 43.956 7.34331 44.1266C7.72757 44.2886 8.12891 44.3825 8.53879 44.408C8.94867 44.4336 9.34147 44.3825 9.72573 44.2545C10.11 44.1351 10.4601 43.9304 10.7675 43.649C11.0749 43.3676 11.3226 43.0008 11.5104 42.5659L11.5019 42.5574Z" fill="black"/>
<path d="M14.3035 37.8665L7.78809 34.0202L8.18943 33.3464L14.7048 37.1928L14.3035 37.8665ZM12.0747 36.0158L11.4685 35.6576L12.5017 33.9178C12.6896 33.5937 12.7835 33.2953 12.792 33.0053C12.792 32.7153 12.7237 32.4595 12.57 32.2292C12.4163 31.9989 12.2114 31.8028 11.9381 31.6407C11.6649 31.4787 11.3916 31.3934 11.1184 31.3678C10.8451 31.3508 10.5804 31.4105 10.3242 31.5469C10.068 31.6834 9.84602 31.9136 9.65816 32.2292L8.62492 33.969L8.02718 33.6193L8.99211 31.9989C9.2739 31.5213 9.58985 31.1546 9.93995 30.9158C10.2901 30.6685 10.6658 30.5491 11.0586 30.5491C11.4514 30.5491 11.8613 30.6685 12.2882 30.9158L12.4163 30.9926C12.8347 31.2399 13.1421 31.5384 13.33 31.888C13.5179 32.2377 13.5862 32.6215 13.5435 33.0479C13.5008 33.4743 13.33 33.9178 13.0482 34.3954L12.0833 36.0244L12.0747 36.0158ZM16.6773 33.8496L12.4932 34.3613L12.9628 33.5682L17.1641 33.0138L16.6773 33.8411V33.8496Z" fill="black"/>
<path d="M21.4846 27.786C21.0491 28.2977 20.588 28.6644 20.0927 28.8691C19.606 29.0823 19.1107 29.1761 18.624 29.1505C18.1372 29.1335 17.6761 29.0226 17.2406 28.8435C16.8051 28.6559 16.4294 28.4256 16.1049 28.1527L15.9512 28.0248C15.6011 27.7263 15.2937 27.3766 15.0375 26.9758C14.7813 26.5749 14.602 26.14 14.5166 25.6709C14.4312 25.2018 14.4483 24.7157 14.5764 24.221C14.7045 23.7179 14.9777 23.2232 15.3962 22.7371C15.8146 22.2424 16.2672 21.8928 16.7454 21.6796C17.2235 21.4663 17.7103 21.3896 18.2055 21.4322C18.7008 21.4749 19.179 21.6625 19.6487 21.9781L19.1363 22.5836C18.7606 22.3362 18.3849 22.2083 18.0006 22.1913C17.6249 22.1742 17.2577 22.2595 16.9076 22.4386C16.5575 22.6177 16.2415 22.8735 15.9598 23.2062C15.6523 23.5644 15.4474 23.9396 15.3449 24.3234C15.2425 24.7072 15.2254 25.091 15.2937 25.4662C15.362 25.8415 15.5072 26.2082 15.7292 26.5493C15.9512 26.8905 16.2245 27.206 16.5575 27.496C16.882 27.7689 17.2235 27.9821 17.5993 28.1356C17.975 28.2891 18.3507 28.3744 18.7521 28.383C19.1449 28.3915 19.5291 28.3147 19.9048 28.1442C20.2806 27.9736 20.6307 27.7007 20.9466 27.3254C21.3906 26.8052 21.6297 26.2508 21.6724 25.6709C21.7066 25.091 21.5187 24.5451 21.0832 24.0419L21.5956 23.4364C21.9372 23.8287 22.1763 24.2637 22.3129 24.7498C22.4495 25.2359 22.4495 25.7391 22.33 26.2594C22.2019 26.7796 21.9286 27.2913 21.4931 27.803L21.4846 27.786Z" fill="black"/>
<path d="M24.5415 24.1356L19.5205 18.5153L20.1097 17.9951L25.1307 23.6154L24.5415 24.1356ZM22.7398 21.2103L22.2701 20.6901L25.8139 17.5345L26.2835 18.0548L22.7398 21.2103ZM28.4098 20.6901L23.3887 15.0698L23.9779 14.5496L28.999 20.1698L28.4098 20.6901Z" fill="black"/>
<path d="M29.9899 19.3512L28.0771 11.5561L29.2385 10.7715L35.8307 15.411L35.1646 15.863L29.0079 11.522L29.4776 11.4623L28.581 12.0678L28.8286 11.6414L30.6389 18.9077L29.9899 19.3426V19.3512ZM29.8789 16.5368L29.691 15.8033L32.5944 13.8503L33.2177 14.2938L29.8789 16.5453V16.5368Z" fill="black"/>
<path d="M36.9746 14.78L33.6699 8.01688L34.8483 7.44547L41.5516 11.7609L41.8504 11.6159L41.7394 11.8547L38.6739 5.57773L39.3485 5.24512L42.6531 12.0082L41.4662 12.5882L34.7629 8.27274L34.4641 8.41772L34.5751 8.17892L37.6406 14.4559L36.9746 14.78Z" fill="black"/>
<path d="M47.8023 10.4049C47.2131 10.5925 46.6581 10.6607 46.1372 10.6096C45.6163 10.5584 45.1467 10.4049 44.7282 10.1661C44.3098 9.92728 43.9512 9.59467 43.6438 9.20236C43.3364 8.80152 43.1058 8.35803 42.9521 7.85485L42.8923 7.67575C42.7472 7.21521 42.6789 6.74615 42.6959 6.26855C42.713 5.79095 42.8155 5.33041 42.9948 4.88693C43.1741 4.44345 43.4559 4.05114 43.8316 3.71C44.2074 3.36886 44.677 3.10447 45.2321 2.9339C45.8127 2.74628 46.3678 2.69511 46.8887 2.77186C47.4095 2.84862 47.8707 3.03625 48.2805 3.34327C48.6819 3.6503 48.9893 4.05114 49.2028 4.55432L48.4428 4.79312C48.2549 4.39228 48.0073 4.07672 47.6828 3.86351C47.3668 3.6503 47.0082 3.52237 46.6239 3.48826C46.2397 3.45414 45.8469 3.49679 45.4455 3.62471C45.0271 3.76117 44.6685 3.95732 44.3781 4.21318C44.0878 4.46903 43.8658 4.77606 43.7121 5.12573C43.5669 5.4754 43.4815 5.85918 43.473 6.26855C43.4645 6.67792 43.5242 7.10434 43.6694 7.5393C43.8146 8.00836 44.0195 8.4092 44.2757 8.75034C44.5318 9.09148 44.8222 9.3644 45.1637 9.56055C45.4968 9.75671 45.8725 9.87611 46.2738 9.91022C46.6837 9.94433 47.1107 9.89316 47.5718 9.74818C48.1354 9.56908 48.5965 9.3047 48.9551 8.9465C49.3138 8.5883 49.5529 8.19599 49.681 7.76104V8.77593L49.0064 6.65233L49.7151 6.43059L50.2872 8.22158C50.1079 8.71623 49.809 9.15971 49.3821 9.5435C48.9637 9.92728 48.4342 10.2172 47.7853 10.4219L47.8023 10.4049ZM46.6154 7.58194L46.419 6.95083L50.2275 5.73978L50.4239 6.37089L46.6154 7.58194Z" fill="black"/>
<path d="M52.6436 8.90371L51.2773 1.50096L52.0459 1.35598L53.4121 8.75872L52.6436 8.90371ZM51.9946 2.08943L51.8665 1.39009L55.4615 0.733398L55.5896 1.43274L51.9946 2.08943ZM52.6009 5.38143L52.4728 4.69062L55.8372 4.07657L55.9653 4.76738L52.6009 5.38143ZM53.2243 8.79284L53.0962 8.0935L56.8022 7.41122L56.9303 8.11056L53.2243 8.79284Z" fill="black"/>
<path d="M65.0001 104.815C65.0001 76.2279 53.7541 64.9959 25.1309 64.9959C53.7541 64.9959 65.0001 53.7638 65.0001 25.1763C65.0001 53.7638 76.2462 64.9959 104.869 64.9959C76.2462 64.9959 65.0001 76.2279 65.0001 104.815Z" fill="#D81100"/>
<path d="M61.4652 5.10849C62.3989 5.10849 63.1559 4.35246 63.1559 3.41985C63.1559 2.48723 62.3989 1.7312 61.4652 1.7312C60.5314 1.7312 59.7744 2.48723 59.7744 3.41985C59.7744 4.35246 60.5314 5.10849 61.4652 5.10849Z" fill="#D81100"/>
<path d="M68.8763 127.808C69.8101 127.808 70.567 127.052 70.567 126.12C70.567 125.187 69.8101 124.431 68.8763 124.431C67.9425 124.431 67.1855 125.187 67.1855 126.12C67.1855 127.052 67.9425 127.808 68.8763 127.808Z" fill="#D81100"/>
</g>
<defs>
<clipPath id="clip0_1706_92">
<rect width="130" height="130" fill="white"/>
</clipPath>
</defs>
</svg>
