<svg width="94" height="34" viewBox="0 0 94 34" fill="none" xmlns="http://www.w3.org/2000/svg">
<rect x="14" y="2" width="78" height="30" rx="8" fill="#D81100" stroke="white" stroke-width="4"/>
<path d="M34.9998 13L36.9334 19.0781H37.0076L38.9451 13H40.8201L38.0623 21H35.8826L33.1209 13H34.9998ZM44.3594 21.1172C43.7422 21.1172 43.2109 20.9922 42.7656 20.7422C42.3229 20.4896 41.9818 20.1328 41.7422 19.6719C41.5026 19.2083 41.3828 18.6602 41.3828 18.0273C41.3828 17.4102 41.5026 16.8685 41.7422 16.4023C41.9818 15.9362 42.319 15.5729 42.7539 15.3125C43.1914 15.0521 43.7044 14.9219 44.293 14.9219C44.6888 14.9219 45.0573 14.9857 45.3984 15.1133C45.7422 15.2383 46.0417 15.4271 46.2969 15.6797C46.5547 15.9323 46.7552 16.25 46.8984 16.6328C47.0417 17.013 47.1133 17.4583 47.1133 17.9687V18.4258H42.0469V17.3945H45.5469C45.5469 17.1549 45.4948 16.9427 45.3906 16.7578C45.2865 16.5729 45.1419 16.4284 44.957 16.3242C44.7747 16.2174 44.5625 16.1641 44.3203 16.1641C44.0677 16.1641 43.8438 16.2227 43.6484 16.3398C43.4557 16.4544 43.3047 16.6094 43.1953 16.8047C43.0859 16.9974 43.0299 17.2122 43.0273 17.4492V18.4297C43.0273 18.7266 43.082 18.9831 43.1914 19.1992C43.3034 19.4154 43.4609 19.582 43.6641 19.6992C43.8672 19.8164 44.1081 19.875 44.3867 19.875C44.5716 19.875 44.7409 19.849 44.8945 19.7969C45.0482 19.7448 45.1797 19.6667 45.2891 19.5625C45.3984 19.4583 45.4818 19.3307 45.5391 19.1797L47.0781 19.2812C47 19.651 46.8398 19.974 46.5977 20.25C46.3581 20.5234 46.0482 20.737 45.668 20.8906C45.2904 21.0417 44.8542 21.1172 44.3594 21.1172ZM48.7492 21V15H50.3625V16.0469H50.425C50.5344 15.6745 50.718 15.3932 50.9758 15.2031C51.2336 15.0104 51.5305 14.9141 51.8664 14.9141C51.9497 14.9141 52.0396 14.9193 52.1359 14.9297C52.2323 14.9401 52.3169 14.9544 52.3898 14.9727V16.4492C52.3117 16.4258 52.2036 16.4049 52.0656 16.3867C51.9276 16.3685 51.8013 16.3594 51.6867 16.3594C51.4419 16.3594 51.2232 16.4128 51.0305 16.5195C50.8404 16.6237 50.6893 16.7695 50.5773 16.957C50.468 17.1445 50.4133 17.3607 50.4133 17.6055V21H48.7492ZM53.8002 21V15H55.4643V21H53.8002ZM54.6361 14.2266C54.3887 14.2266 54.1765 14.1445 53.9994 13.9805C53.8249 13.8138 53.7377 13.6146 53.7377 13.3828C53.7377 13.1536 53.8249 12.957 53.9994 12.793C54.1765 12.6263 54.3887 12.543 54.6361 12.543C54.8835 12.543 55.0945 12.6263 55.2689 12.793C55.446 12.957 55.5346 13.1536 55.5346 13.3828C55.5346 13.6146 55.446 13.8138 55.2689 13.9805C55.0945 14.1445 54.8835 14.2266 54.6361 14.2266ZM60.5738 15V16.25H56.8707V15H60.5738ZM57.7184 21V14.5664C57.7184 14.1315 57.803 13.7708 57.9723 13.4844C58.1441 13.1979 58.3785 12.9831 58.6754 12.8398C58.9723 12.6966 59.3095 12.625 59.6871 12.625C59.9423 12.625 60.1754 12.6445 60.3863 12.6836C60.5999 12.7227 60.7587 12.7578 60.8629 12.7891L60.566 14.0391C60.5009 14.0182 60.4202 13.9987 60.3238 13.9805C60.2301 13.9622 60.1337 13.9531 60.0348 13.9531C59.79 13.9531 59.6194 14.0104 59.523 14.125C59.4267 14.237 59.3785 14.3945 59.3785 14.5977V21H57.7184ZM62.1404 21V15H63.8045V21H62.1404ZM62.9764 14.2266C62.729 14.2266 62.5167 14.1445 62.3396 13.9805C62.1652 13.8138 62.0779 13.6146 62.0779 13.3828C62.0779 13.1536 62.1652 12.957 62.3396 12.793C62.5167 12.6263 62.729 12.543 62.9764 12.543C63.2238 12.543 63.4347 12.6263 63.6092 12.793C63.7863 12.957 63.8748 13.1536 63.8748 13.3828C63.8748 13.6146 63.7863 13.8138 63.6092 13.9805C63.4347 14.1445 63.2238 14.2266 62.9764 14.2266ZM68.4219 21.1172C67.8047 21.1172 67.2734 20.9922 66.8281 20.7422C66.3854 20.4896 66.0443 20.1328 65.8047 19.6719C65.5651 19.2083 65.4453 18.6602 65.4453 18.0273C65.4453 17.4102 65.5651 16.8685 65.8047 16.4023C66.0443 15.9362 66.3815 15.5729 66.8164 15.3125C67.2539 15.0521 67.7669 14.9219 68.3555 14.9219C68.7513 14.9219 69.1198 14.9857 69.4609 15.1133C69.8047 15.2383 70.1042 15.4271 70.3594 15.6797C70.6172 15.9323 70.8177 16.25 70.9609 16.6328C71.1042 17.013 71.1758 17.4583 71.1758 17.9687V18.4258H66.1094V17.3945H69.6094C69.6094 17.1549 69.5573 16.9427 69.4531 16.7578C69.349 16.5729 69.2044 16.4284 69.0195 16.3242C68.8372 16.2174 68.625 16.1641 68.3828 16.1641C68.1302 16.1641 67.9063 16.2227 67.7109 16.3398C67.5182 16.4544 67.3672 16.6094 67.2578 16.8047C67.1484 16.9974 67.0924 17.2122 67.0898 17.4492V18.4297C67.0898 18.7266 67.1445 18.9831 67.2539 19.1992C67.3659 19.4154 67.5234 19.582 67.7266 19.6992C67.9297 19.8164 68.1706 19.875 68.4492 19.875C68.6341 19.875 68.8034 19.849 68.957 19.7969C69.1107 19.7448 69.2422 19.6667 69.3516 19.5625C69.4609 19.4583 69.5443 19.3307 69.6016 19.1797L71.1406 19.2812C71.0625 19.651 70.9023 19.974 70.6602 20.25C70.4206 20.5234 70.1107 20.737 69.7305 20.8906C69.3529 21.0417 68.9167 21.1172 68.4219 21.1172ZM75.0227 21.0977C74.5669 21.0977 74.1542 20.9805 73.7844 20.7461C73.4172 20.5091 73.1255 20.1615 72.9094 19.7031C72.6958 19.2422 72.5891 18.6771 72.5891 18.0078C72.5891 17.3203 72.6997 16.7487 72.9211 16.293C73.1424 15.8346 73.4367 15.4922 73.8039 15.2656C74.1737 15.0365 74.5786 14.9219 75.0187 14.9219C75.3547 14.9219 75.6346 14.9792 75.8586 15.0938C76.0852 15.2057 76.2674 15.3464 76.4055 15.5156C76.5461 15.6823 76.6529 15.8464 76.7258 16.0078H76.7766V13H78.4367V21H76.7961V20.0391H76.7258C76.6477 20.2057 76.537 20.3711 76.3937 20.5352C76.2531 20.6966 76.0695 20.8307 75.843 20.9375C75.619 21.0443 75.3456 21.0977 75.0227 21.0977ZM75.55 19.7734C75.8182 19.7734 76.0448 19.7005 76.2297 19.5547C76.4172 19.4062 76.5604 19.1992 76.6594 18.9336C76.7609 18.668 76.8117 18.3568 76.8117 18C76.8117 17.6432 76.7622 17.3333 76.6633 17.0703C76.5643 16.8073 76.4211 16.6042 76.2336 16.4609C76.0461 16.3177 75.8182 16.2461 75.55 16.2461C75.2766 16.2461 75.0461 16.3203 74.8586 16.4687C74.6711 16.6172 74.5292 16.8229 74.4328 17.0859C74.3365 17.349 74.2883 17.6536 74.2883 18C74.2883 18.349 74.3365 18.6576 74.4328 18.9258C74.5318 19.1914 74.6737 19.3997 74.8586 19.5508C75.0461 19.6992 75.2766 19.7734 75.55 19.7734Z" fill="white"/>
<path d="M13.7871 4.5C20.5544 4.50006 26.074 10.0036 26.0742 16.7676C26.0742 23.5668 20.5581 29.0742 13.7871 29.0742C6.99555 29.0742 1.5 23.5651 1.5 16.7676C1.5002 10.0053 6.99917 4.5 13.7871 4.5ZM18.0283 14.665C17.9113 14.4754 17.6677 14.4098 17.46 14.5381L17.459 14.5371L13.042 17.29L11.7773 18.0771L10.9814 16.8184L10.2529 15.667L10.1963 15.5928C10.0526 15.4395 9.84103 15.42 9.67285 15.5273L9.66309 15.5342L9.65332 15.54C9.47112 15.6527 9.40028 15.9058 9.5332 16.1152L11.3018 18.8896L11.3057 18.8945L11.3418 18.9453C11.4317 19.0547 11.5509 19.1016 11.6533 19.1016C11.7134 19.1015 11.7984 19.0859 11.9111 19.0195L17.9092 15.2666C18.1039 15.1427 18.1625 14.8754 18.041 14.6846L18.0352 14.6748L18.0283 14.665Z" fill="#D81100" stroke="white" stroke-width="3"/>
</svg>
